<svg xmlns="http://www.w3.org/2000/svg" xmlns:xlink="http://www.w3.org/1999/xlink" width="500" zoomAndPan="magnify" viewBox="0 0 375 374.999991" height="500" preserveAspectRatio="xMidYMid meet" version="1.0"><defs><g/><clipPath id="bc7d251567"><path d="M 140 102.683594 L 235 102.683594 L 235 188.933594 L 140 188.933594 Z M 140 102.683594 " clip-rule="nonzero"/></clipPath></defs><rect x="-37.5" width="450" fill="#ffffff" y="-37.499999" height="449.999989" fill-opacity="1"/><rect x="-37.5" width="450" fill="#000000" y="-37.499999" height="449.999989" fill-opacity="1"/><g clip-path="url(#bc7d251567)"><path fill="#ffffff" d="M 185.710938 115.0625 L 146.722656 154.050781 C 146.152344 154.621094 145.222656 154.621094 144.652344 154.050781 C 144.371094 153.765625 144.222656 153.394531 144.222656 153.011719 L 144.222656 104.144531 C 144.222656 103.339844 144.875 102.683594 145.679688 102.683594 L 233.398438 102.683594 C 234.203125 102.683594 234.859375 103.339844 234.859375 104.144531 C 234.859375 104.578125 234.675781 104.976562 234.363281 105.246094 L 229.550781 110.1875 L 185.625 154.113281 L 184.507812 155.214844 L 159.085938 180.636719 L 185.757812 180.636719 L 189.484375 176.910156 L 208.371094 157.886719 L 228.261719 137.996094 C 228.832031 137.429688 229.761719 137.429688 230.328125 137.996094 C 230.613281 138.28125 230.761719 138.652344 230.761719 139.039062 L 230.761719 187.765625 C 230.761719 188.570312 230.105469 189.226562 229.300781 189.226562 L 141.585938 189.226562 C 140.78125 189.226562 140.125 188.570312 140.125 187.765625 C 140.125 187.320312 140.320312 186.914062 140.644531 186.640625 L 145.558594 181.863281 L 216.023438 111.398438 L 189.347656 111.398438 L 185.699219 115.050781 Z M 185.710938 115.0625 " fill-opacity="1" fill-rule="nonzero"/></g><g fill="#ffffff" fill-opacity="1"><g transform="translate(101.453783, 238.664502)"><g><path d="M 2.8125 -24.359375 C 2.8125 -24.796875 2.789062 -25.382812 2.75 -26.125 L 21.375 -26.125 L 9.9375 -4.71875 L 17.078125 -4.71875 C 18.929688 -4.71875 20.023438 -4.769531 20.359375 -4.875 C 20.691406 -4.988281 20.957031 -5.09375 21.15625 -5.1875 L 21.15625 0.296875 C 20.59375 0.242188 20.128906 0.195312 19.765625 0.15625 C 19.398438 0.113281 19.015625 0.0820312 18.609375 0.0625 C 17.992188 0.0195312 16.800781 0 15.03125 0 L 1.8125 0 L 13.640625 -21.40625 L 7.453125 -21.40625 C 4.890625 -21.40625 3.265625 -21.269531 2.578125 -21 C 2.734375 -21.65625 2.8125 -22.578125 2.8125 -23.765625 Z M 2.8125 -24.359375 "/></g></g></g><g fill="#ffffff" fill-opacity="1"><g transform="translate(130.443863, 238.664502)"><g><path d="M 5.515625 -3.09375 C 4.328125 -4.238281 3.390625 -5.609375 2.703125 -7.203125 C 2.015625 -8.804688 1.671875 -10.5625 1.671875 -12.46875 C 1.671875 -14.375 1.988281 -16.175781 2.625 -17.875 C 3.269531 -19.582031 4.1875 -21.082031 5.375 -22.375 C 6.570312 -23.675781 8.015625 -24.707031 9.703125 -25.46875 C 11.390625 -26.238281 13.28125 -26.625 15.375 -26.625 C 19 -26.625 22.046875 -25.484375 24.515625 -23.203125 C 27.160156 -20.765625 28.484375 -17.476562 28.484375 -13.34375 C 28.484375 -9.332031 27.125 -6 24.40625 -3.34375 C 22.726562 -1.707031 20.726562 -0.578125 18.40625 0.046875 C 17.269531 0.335938 15.9375 0.484375 14.40625 0.484375 C 12.882812 0.484375 11.320312 0.171875 9.71875 -0.453125 C 8.113281 -1.078125 6.710938 -1.957031 5.515625 -3.09375 Z M 7.125 -12.734375 C 7.125 -11.515625 7.328125 -10.394531 7.734375 -9.375 C 8.140625 -8.351562 8.707031 -7.472656 9.4375 -6.734375 C 10.96875 -5.191406 12.9375 -4.421875 15.34375 -4.421875 C 17.632812 -4.421875 19.472656 -5.160156 20.859375 -6.640625 C 22.273438 -8.171875 22.984375 -10.257812 22.984375 -12.90625 C 22.984375 -15.394531 22.3125 -17.472656 20.96875 -19.140625 C 19.507812 -20.921875 17.515625 -21.8125 14.984375 -21.8125 C 12.535156 -21.8125 10.59375 -20.90625 9.15625 -19.09375 C 7.800781 -17.40625 7.125 -15.285156 7.125 -12.734375 Z M 7.125 -12.734375 "/></g></g></g><g fill="#ffffff" fill-opacity="1"><g transform="translate(166.230692, 238.664502)"><g><path d="M 2.8125 -24.359375 C 2.8125 -24.796875 2.789062 -25.382812 2.75 -26.125 L 21.375 -26.125 L 9.9375 -4.71875 L 17.078125 -4.71875 C 18.929688 -4.71875 20.023438 -4.769531 20.359375 -4.875 C 20.691406 -4.988281 20.957031 -5.09375 21.15625 -5.1875 L 21.15625 0.296875 C 20.59375 0.242188 20.128906 0.195312 19.765625 0.15625 C 19.398438 0.113281 19.015625 0.0820312 18.609375 0.0625 C 17.992188 0.0195312 16.800781 0 15.03125 0 L 1.8125 0 L 13.640625 -21.40625 L 7.453125 -21.40625 C 4.890625 -21.40625 3.265625 -21.269531 2.578125 -21 C 2.734375 -21.65625 2.8125 -22.578125 2.8125 -23.765625 Z M 2.8125 -24.359375 "/></g></g></g><g fill="#ffffff" fill-opacity="1"><g transform="translate(195.220771, 238.664502)"><g><path d="M 5.515625 -3.09375 C 4.328125 -4.238281 3.390625 -5.609375 2.703125 -7.203125 C 2.015625 -8.804688 1.671875 -10.5625 1.671875 -12.46875 C 1.671875 -14.375 1.988281 -16.175781 2.625 -17.875 C 3.269531 -19.582031 4.1875 -21.082031 5.375 -22.375 C 6.570312 -23.675781 8.015625 -24.707031 9.703125 -25.46875 C 11.390625 -26.238281 13.28125 -26.625 15.375 -26.625 C 19 -26.625 22.046875 -25.484375 24.515625 -23.203125 C 27.160156 -20.765625 28.484375 -17.476562 28.484375 -13.34375 C 28.484375 -9.332031 27.125 -6 24.40625 -3.34375 C 22.726562 -1.707031 20.726562 -0.578125 18.40625 0.046875 C 17.269531 0.335938 15.9375 0.484375 14.40625 0.484375 C 12.882812 0.484375 11.320312 0.171875 9.71875 -0.453125 C 8.113281 -1.078125 6.710938 -1.957031 5.515625 -3.09375 Z M 7.125 -12.734375 C 7.125 -11.515625 7.328125 -10.394531 7.734375 -9.375 C 8.140625 -8.351562 8.707031 -7.472656 9.4375 -6.734375 C 10.96875 -5.191406 12.9375 -4.421875 15.34375 -4.421875 C 17.632812 -4.421875 19.472656 -5.160156 20.859375 -6.640625 C 22.273438 -8.171875 22.984375 -10.257812 22.984375 -12.90625 C 22.984375 -15.394531 22.3125 -17.472656 20.96875 -19.140625 C 19.507812 -20.921875 17.515625 -21.8125 14.984375 -21.8125 C 12.535156 -21.8125 10.59375 -20.90625 9.15625 -19.09375 C 7.800781 -17.40625 7.125 -15.285156 7.125 -12.734375 Z M 7.125 -12.734375 "/></g></g></g><g fill="#ffffff" fill-opacity="1"><g transform="translate(231.0076, 238.664502)"><g><path d="M 9.34375 -28.390625 C 9.488281 -27.015625 9.5625 -25.972656 9.5625 -25.265625 C 9.5625 -24.566406 9.539062 -23.890625 9.5 -23.234375 C 9.457031 -22.585938 9.394531 -22 9.3125 -21.46875 C 9.113281 -20.34375 8.878906 -19.691406 8.609375 -19.515625 C 7.953125 -19.085938 6.410156 -18.628906 3.984375 -18.140625 L 3.875 -18.25 C 4.34375 -19.125 4.578125 -21.082031 4.578125 -24.125 C 4.578125 -25.457031 4.535156 -26.617188 4.453125 -27.609375 Z M 9.34375 -28.390625 "/></g></g></g><g fill="#ffffff" fill-opacity="1"><g transform="translate(250.077564, 238.664502)"><g><path d="M 19.15625 -24.671875 L 18.78125 -18.90625 L 18.640625 -18.859375 C 17.671875 -20.316406 16.019531 -21.257812 13.6875 -21.6875 C 12.957031 -21.832031 12.253906 -21.90625 11.578125 -21.90625 C 10.898438 -21.90625 10.320312 -21.84375 9.84375 -21.71875 C 9.375 -21.601562 8.96875 -21.4375 8.625 -21.21875 C 7.90625 -20.75 7.546875 -20.132812 7.546875 -19.375 C 7.546875 -18.375 7.859375 -17.625 8.484375 -17.125 C 9.273438 -16.53125 10.578125 -16.109375 12.390625 -15.859375 C 14.210938 -15.617188 15.671875 -15.289062 16.765625 -14.875 C 17.867188 -14.457031 18.773438 -13.925781 19.484375 -13.28125 C 20.828125 -12.070312 21.5 -10.367188 21.5 -8.171875 C 21.5 -5.285156 20.410156 -3.066406 18.234375 -1.515625 C 16.367188 -0.179688 14.023438 0.484375 11.203125 0.484375 C 8.921875 0.484375 6.664062 0.0507812 4.4375 -0.8125 C 3.707031 -1.09375 3.066406 -1.425781 2.515625 -1.8125 L 2.734375 -8.375 L 2.8125 -8.421875 C 4.4375 -5.617188 7.101562 -4.21875 10.8125 -4.21875 C 13.4375 -4.21875 15.175781 -4.851562 16.03125 -6.125 C 16.320312 -6.5625 16.46875 -7.046875 16.46875 -7.578125 C 16.46875 -8.109375 16.378906 -8.546875 16.203125 -8.890625 C 16.035156 -9.234375 15.753906 -9.53125 15.359375 -9.78125 C 14.597656 -10.28125 13.320312 -10.613281 11.53125 -10.78125 C 9.738281 -10.957031 8.269531 -11.28125 7.125 -11.75 C 5.988281 -12.21875 5.082031 -12.800781 4.40625 -13.5 C 3.164062 -14.75 2.546875 -16.503906 2.546875 -18.765625 C 2.546875 -21.097656 3.367188 -22.984375 5.015625 -24.421875 C 6.671875 -25.890625 8.910156 -26.625 11.734375 -26.625 C 14.554688 -26.625 17.03125 -25.972656 19.15625 -24.671875 Z M 19.15625 -24.671875 "/></g></g></g><g fill="#ffffff" fill-opacity="1"><g transform="translate(125.66188, 267.49217)"><g><path d="M 3.453125 0.171875 C 2.703125 0.171875 1.992188 0.113281 1.328125 0 L 1.328125 -9.3125 C 1.941406 -9.382812 2.648438 -9.421875 3.453125 -9.421875 C 4.265625 -9.421875 5 -9.3125 5.65625 -9.09375 C 6.3125 -8.875 6.863281 -8.5625 7.3125 -8.15625 C 8.195312 -7.34375 8.640625 -6.195312 8.640625 -4.71875 C 8.640625 -3.070312 8.144531 -1.820312 7.15625 -0.96875 C 6.257812 -0.207031 5.023438 0.171875 3.453125 0.171875 Z M 3.140625 -1.53125 C 3.441406 -1.46875 3.742188 -1.4375 4.046875 -1.4375 C 4.347656 -1.4375 4.671875 -1.492188 5.015625 -1.609375 C 5.359375 -1.734375 5.660156 -1.921875 5.921875 -2.171875 C 6.472656 -2.703125 6.75 -3.472656 6.75 -4.484375 C 6.75 -6.140625 6.140625 -7.160156 4.921875 -7.546875 C 4.523438 -7.671875 4.066406 -7.734375 3.546875 -7.734375 L 3.359375 -7.734375 C 3.285156 -7.734375 3.210938 -7.726562 3.140625 -7.71875 Z M 3.140625 -1.53125 "/></g></g></g><g fill="#ffffff" fill-opacity="1"><g transform="translate(138.489665, 267.49217)"><g><path d="M 5.859375 -1.671875 C 6.140625 -1.671875 6.335938 -1.695312 6.453125 -1.75 L 6.484375 -1.75 L 6.40625 0 L 1.203125 0 L 1.203125 -9.296875 C 1.328125 -9.285156 1.460938 -9.28125 1.609375 -9.28125 L 2.09375 -9.265625 C 2.425781 -9.253906 2.78125 -9.25 3.15625 -9.25 C 4.21875 -9.25 5.269531 -9.269531 6.3125 -9.3125 C 6.257812 -8.90625 6.234375 -8.359375 6.234375 -7.671875 C 6.234375 -7.597656 6.238281 -7.539062 6.25 -7.5 L 6.234375 -7.484375 C 5.992188 -7.554688 5.648438 -7.59375 5.203125 -7.59375 L 3.015625 -7.59375 L 3.015625 -5.8125 L 4.65625 -5.8125 C 5.164062 -5.8125 5.472656 -5.828125 5.578125 -5.859375 L 5.59375 -4.140625 C 5.375 -4.160156 5.085938 -4.171875 4.734375 -4.171875 L 3.015625 -4.171875 L 3.015625 -1.671875 Z M 5.859375 -1.671875 "/></g></g></g><g fill="#ffffff" fill-opacity="1"><g transform="translate(148.965643, 267.49217)"><g><path d="M 5.15625 0.03125 C 5.007812 0.0078125 4.765625 0 4.421875 0 L 3.65625 0 C 3.53125 0 3.414062 0.00390625 3.3125 0.015625 L 3.3125 0 C 3.332031 -0.03125 3.34375 -0.0664062 3.34375 -0.109375 C 3.34375 -0.148438 3.335938 -0.191406 3.328125 -0.234375 C 3.316406 -0.285156 3.296875 -0.367188 3.265625 -0.484375 C 3.234375 -0.609375 3.1875 -0.785156 3.125 -1.015625 L 2.828125 -1.953125 L 0.234375 -9.28125 C 0.523438 -9.257812 0.890625 -9.25 1.328125 -9.25 C 1.773438 -9.25 2.0625 -9.269531 2.1875 -9.3125 L 4.28125 -2.984375 L 6.125 -9.28125 C 6.40625 -9.257812 6.75 -9.25 7.15625 -9.25 C 7.707031 -9.25 8.03125 -9.269531 8.125 -9.3125 L 5.59375 -1.96875 C 5.59375 -1.96875 5.507812 -1.695312 5.34375 -1.15625 C 5.207031 -0.6875 5.140625 -0.382812 5.140625 -0.25 C 5.140625 -0.113281 5.148438 -0.03125 5.171875 0 Z M 5.15625 0.03125 "/></g></g></g><g fill="#ffffff" fill-opacity="1"><g transform="translate(160.603608, 267.49217)"><g><path d="M 5.859375 -1.671875 C 6.140625 -1.671875 6.335938 -1.695312 6.453125 -1.75 L 6.484375 -1.75 L 6.40625 0 L 1.203125 0 L 1.203125 -9.296875 C 1.328125 -9.285156 1.460938 -9.28125 1.609375 -9.28125 L 2.09375 -9.265625 C 2.425781 -9.253906 2.78125 -9.25 3.15625 -9.25 C 4.21875 -9.25 5.269531 -9.269531 6.3125 -9.3125 C 6.257812 -8.90625 6.234375 -8.359375 6.234375 -7.671875 C 6.234375 -7.597656 6.238281 -7.539062 6.25 -7.5 L 6.234375 -7.484375 C 5.992188 -7.554688 5.648438 -7.59375 5.203125 -7.59375 L 3.015625 -7.59375 L 3.015625 -5.8125 L 4.65625 -5.8125 C 5.164062 -5.8125 5.472656 -5.828125 5.578125 -5.859375 L 5.59375 -4.140625 C 5.375 -4.160156 5.085938 -4.171875 4.734375 -4.171875 L 3.015625 -4.171875 L 3.015625 -1.671875 Z M 5.859375 -1.671875 "/></g></g></g><g fill="#ffffff" fill-opacity="1"><g transform="translate(171.079587, 267.49217)"><g><path d="M 2.546875 0 C 1.867188 0 1.421875 0.015625 1.203125 0.046875 L 1.203125 -9.296875 C 1.304688 -9.265625 1.535156 -9.25 1.890625 -9.25 C 2.242188 -9.25 2.648438 -9.257812 3.109375 -9.28125 L 3.109375 -1.671875 L 4.546875 -1.671875 C 4.960938 -1.671875 5.296875 -1.6875 5.546875 -1.71875 C 5.515625 -0.625 5.5 -0.0546875 5.5 -0.015625 L 5.5 0.046875 C 5.050781 0.015625 4.289062 0 3.21875 0 Z M 2.546875 0 "/></g></g></g><g fill="#ffffff" fill-opacity="1"><g transform="translate(180.365745, 267.49217)"><g><path d="M 1.953125 -1.09375 C 1.535156 -1.5 1.203125 -1.984375 0.953125 -2.546875 C 0.710938 -3.117188 0.59375 -3.738281 0.59375 -4.40625 C 0.59375 -5.082031 0.703125 -5.722656 0.921875 -6.328125 C 1.148438 -6.929688 1.476562 -7.460938 1.90625 -7.921875 C 2.332031 -8.378906 2.84375 -8.742188 3.4375 -9.015625 C 4.03125 -9.285156 4.703125 -9.421875 5.453125 -9.421875 C 6.734375 -9.421875 7.8125 -9.019531 8.6875 -8.21875 C 9.625 -7.351562 10.09375 -6.1875 10.09375 -4.71875 C 10.09375 -3.300781 9.609375 -2.125 8.640625 -1.1875 C 8.046875 -0.601562 7.335938 -0.203125 6.515625 0.015625 C 6.117188 0.117188 5.648438 0.171875 5.109375 0.171875 C 4.566406 0.171875 4.007812 0.0625 3.4375 -0.15625 C 2.875 -0.382812 2.378906 -0.695312 1.953125 -1.09375 Z M 2.53125 -4.515625 C 2.53125 -4.078125 2.597656 -3.675781 2.734375 -3.3125 C 2.878906 -2.957031 3.082031 -2.648438 3.34375 -2.390625 C 3.882812 -1.835938 4.582031 -1.5625 5.4375 -1.5625 C 6.25 -1.5625 6.898438 -1.828125 7.390625 -2.359375 C 7.890625 -2.898438 8.140625 -3.640625 8.140625 -4.578125 C 8.140625 -5.453125 7.898438 -6.1875 7.421875 -6.78125 C 6.910156 -7.40625 6.207031 -7.71875 5.3125 -7.71875 C 4.445312 -7.71875 3.757812 -7.398438 3.25 -6.765625 C 2.769531 -6.160156 2.53125 -5.410156 2.53125 -4.515625 Z M 2.53125 -4.515625 "/></g></g></g><g fill="#ffffff" fill-opacity="1"><g transform="translate(194.38335, 267.49217)"><g><path d="M 1.0625 -9.296875 C 1.707031 -9.378906 2.367188 -9.421875 3.046875 -9.421875 C 4.304688 -9.421875 5.265625 -9.125 5.921875 -8.53125 C 6.578125 -7.945312 6.90625 -7.066406 6.90625 -5.890625 C 6.90625 -4.835938 6.546875 -4.003906 5.828125 -3.390625 C 5.160156 -2.816406 4.296875 -2.53125 3.234375 -2.53125 C 3.109375 -2.53125 2.976562 -2.535156 2.84375 -2.546875 L 2.84375 0 L 1.0625 0 Z M 3.25 -7.75 C 3.113281 -7.75 2.976562 -7.742188 2.84375 -7.734375 L 2.84375 -4.078125 C 2.988281 -4.054688 3.164062 -4.046875 3.375 -4.046875 C 3.59375 -4.046875 3.816406 -4.09375 4.046875 -4.1875 C 4.273438 -4.28125 4.472656 -4.40625 4.640625 -4.5625 C 4.960938 -4.90625 5.125 -5.351562 5.125 -5.90625 C 5.125 -7.132812 4.5 -7.75 3.25 -7.75 Z M 3.25 -7.75 "/></g></g></g><g fill="#ffffff" fill-opacity="1"><g transform="translate(204.859328, 267.49217)"><g><path d="M 3.078125 0.046875 C 2.847656 0.015625 2.414062 0 1.78125 0 L 1.234375 0 L 1.234375 -9.28125 C 1.523438 -9.257812 1.847656 -9.25 2.203125 -9.25 C 2.566406 -9.25 2.820312 -9.269531 2.96875 -9.3125 L 5.3125 -5.34375 L 7.5625 -9.3125 C 7.707031 -9.269531 7.988281 -9.25 8.40625 -9.25 C 8.820312 -9.25 9.179688 -9.257812 9.484375 -9.28125 L 9.484375 0 L 8.921875 0 C 8.285156 0 7.859375 0.015625 7.640625 0.046875 L 7.640625 -6.1875 L 5.359375 -2.125 L 3.078125 -5.859375 Z M 3.078125 0.046875 "/></g></g></g><g fill="#ffffff" fill-opacity="1"><g transform="translate(218.904764, 267.49217)"><g><path d="M 5.859375 -1.671875 C 6.140625 -1.671875 6.335938 -1.695312 6.453125 -1.75 L 6.484375 -1.75 L 6.40625 0 L 1.203125 0 L 1.203125 -9.296875 C 1.328125 -9.285156 1.460938 -9.28125 1.609375 -9.28125 L 2.09375 -9.265625 C 2.425781 -9.253906 2.78125 -9.25 3.15625 -9.25 C 4.21875 -9.25 5.269531 -9.269531 6.3125 -9.3125 C 6.257812 -8.90625 6.234375 -8.359375 6.234375 -7.671875 C 6.234375 -7.597656 6.238281 -7.539062 6.25 -7.5 L 6.234375 -7.484375 C 5.992188 -7.554688 5.648438 -7.59375 5.203125 -7.59375 L 3.015625 -7.59375 L 3.015625 -5.8125 L 4.65625 -5.8125 C 5.164062 -5.8125 5.472656 -5.828125 5.578125 -5.859375 L 5.59375 -4.140625 C 5.375 -4.160156 5.085938 -4.171875 4.734375 -4.171875 L 3.015625 -4.171875 L 3.015625 -1.671875 Z M 5.859375 -1.671875 "/></g></g></g><g fill="#ffffff" fill-opacity="1"><g transform="translate(229.380742, 267.49217)"><g><path d="M 1.265625 0 C 1.285156 -0.15625 1.296875 -0.328125 1.296875 -0.515625 L 1.296875 -9.25 L 2.6875 -9.25 L 6.375 -3.453125 L 6.375 -8.78125 C 6.375 -9.03125 6.351562 -9.1875 6.3125 -9.25 L 8.1875 -9.25 C 8.164062 -9.0625 8.15625 -8.859375 8.15625 -8.640625 L 8.15625 0 L 6.703125 0 L 3.078125 -5.578125 L 3.078125 0 Z M 1.265625 0 "/></g></g></g><g fill="#ffffff" fill-opacity="1"><g transform="translate(242.173736, 267.49217)"><g><path d="M 4.53125 0.046875 C 4.3125 0.015625 3.738281 0 2.8125 0 L 2.59375 0 L 2.59375 -7.703125 L 1.21875 -7.703125 C 0.8125 -7.703125 0.566406 -7.679688 0.484375 -7.640625 C 0.410156 -7.597656 0.351562 -7.554688 0.3125 -7.515625 L 0.296875 -7.53125 L 0.296875 -9.3125 L 0.3125 -9.328125 C 0.46875 -9.273438 0.882812 -9.25 1.5625 -9.25 L 5.921875 -9.25 C 6.328125 -9.25 6.566406 -9.269531 6.640625 -9.3125 C 6.710938 -9.351562 6.769531 -9.390625 6.8125 -9.421875 L 6.84375 -9.421875 L 6.84375 -7.640625 L 6.8125 -7.625 C 6.664062 -7.675781 6.253906 -7.703125 5.578125 -7.703125 L 4.53125 -7.703125 Z M 4.53125 0.046875 "/></g></g></g></svg>